<svg xmlns="http://www.w3.org/2000/svg" xmlns:xlink="http://www.w3.org/1999/xlink" width="600" height="200" viewBox="0 0 600 200">
  <defs>
    <clipPath id="clip-homepageicon">
      <rect width="600" height="200"/>
    </clipPath>
  </defs>
  <g id="homepageicon" clip-path="url(#clip-homepageicon)">
    <g id="组_484" data-name="组 484">
      <path id="路径_85" data-name="路径 85" d="M553.959,375.057a7.786,7.786,0,0,0-3.5-2.1c-4.4-1.748-4.315-2.155-6.3-2.8-2.8-.912-4.943-.739-11.9,0-7.707.818-11.561,1.227-12.6,1.4-7.831,1.3-11.857,2.749-17.5,4.2-6.082,1.564-13.388,2.442-28,4.2-8.085.972-17.432,2.1-23.8,2.1h-14a5.213,5.213,0,0,1-.7,0c-.289-.351,8.955-7.609,15.4-14.7,4.884-5.373,7.644-8.41,10.5-13.3a62.9,62.9,0,0,0,7.7-23.1,75.8,75.8,0,0,0,.7-16.8c-.4-5.833-.766-11.157-3.5-17.5a44.966,44.966,0,0,0-8.4-12.6,54.828,54.828,0,0,0-12.6-10.5,64.435,64.435,0,0,0-10.5-4.9c-7.683-2.952-14.113-5.421-23.1-6.3a67.371,67.371,0,0,0-24.5,2.1,56.055,56.055,0,0,0-16.1,7c-3.746,2.422-7.163,5.814-14,12.6-7.855,7.8-10.31,11.292-11.2,12.6-3.209,4.709-4.813,7.064-5.6,9.8-.988,3.434-1.385,7.953-3.5,8.4a1.77,1.77,0,0,1-.7,0c-7.625-11.989-9.1-14-9.1-14a68.525,68.525,0,0,0-11.9-13.3,56.9,56.9,0,0,0-10.5-7,40.63,40.63,0,0,0-14.7-4.9c-4.555-.506-8.123-.014-13.3.7a56.94,56.94,0,0,0-12.6,2.8,38.951,38.951,0,0,0-11.9,6.3,41.251,41.251,0,0,0-7.7,8.4,44.328,44.328,0,0,0-6.3,10.5c-2.373,5.871-2.58,10.839-2.8,16.1a72.333,72.333,0,0,0,.7,13.3,73.565,73.565,0,0,0,6.3,21,59,59,0,0,0,7.7,12.6,57.525,57.525,0,0,0,18.2,14.7c5.619,2.889,10.266,4.091,16.1,5.6a110.711,110.711,0,0,0,15.4,2.8c1.676.185,5.47.568,18.2.7,8.563.088,14.7,0,14.7,0,14.094-.2,18.241.039,35.7,0,39.012-.089,37.737-1.345,58.8-.7,13.414.41,20.422,1.119,33.6,1.4,2.513.053,7.11.131,13.3.7,4.246.39,4.828.605,11.9,1.4,4.719.53,4.231.408,14,1.4,7.943.806,9.347,1,14,1.4,3.248.281,5.7.494,9.1.7,5.177.313,9.984.209,19.6,0a19.918,19.918,0,0,0,4.9-.7,17.7,17.7,0,0,0,3.5-1.4,7.22,7.22,0,0,0,2.1-1.4,5.97,5.97,0,0,0,1.4-3.5c.583-4.552.689-11.166.7-11.9A6.425,6.425,0,0,0,553.959,375.057Zm-130.193,4.2a5.309,5.309,0,0,1-1.4,2.1,2.69,2.69,0,0,1-1.4.7,2.423,2.423,0,0,1-.7,0c-17.685-.041-31.725-.022-40.6,0-23.956.057-28.725.172-37.8-.7a205.207,205.207,0,0,1-37.1-7c-14.516-4.165-23.72-6.908-33.6-14.7a69.449,69.449,0,0,1-14.7-16.1c-3.217-4.877-6.508-9.979-7.7-17.5a29.413,29.413,0,0,1,.7-14c.727-2.321,2.63-8.4,8.4-12.6,4.178-3.042,8.274-3.562,13.3-4.2,7.959-1.011,14.193.255,19.6,1.4a81.3,81.3,0,0,1,16.8,5.6c6.488,2.966,10.159,5.71,17.5,11.2a18.849,18.849,0,0,1,6.3,7.7,10.01,10.01,0,0,1,.7,2.8c.184,2.035-.374,3.426-1.4,6.3a64.777,64.777,0,0,0-2.1,6.3,16.363,16.363,0,0,0,0,7,13.411,13.411,0,0,0,2.1,4.9,12.1,12.1,0,0,0,13.3,4.9,12.573,12.573,0,0,0,6.3-4.2,14.409,14.409,0,0,0,2.8-8.4c.291-3.684-.568-4.757-1.4-10.5a47.541,47.541,0,0,1-.7-11.2c.4-4.894,1.812-8.405,3.5-12.6a46.555,46.555,0,0,1,6.3-11.9,39.348,39.348,0,0,1,11.9-10.5,37.444,37.444,0,0,1,12.6-4.2c9.747-1.594,17.494.632,22.4,2.1a60.346,60.346,0,0,1,18.2,9.1,64.989,64.989,0,0,1,10.5,9.8,45.692,45.692,0,0,1,7.7,11.2,42.143,42.143,0,0,1,3.5,13.3,51.956,51.956,0,0,1-1.4,23.1c-1.385,4.48-3.434,11.109-9.1,16.8C434.26,368.073,424.684,376.571,423.765,379.256Z" transform="translate(-227 -229.113)" fill="#fff"/>
      <path id="路径_86" data-name="路径 86" d="M616.449,306.268c-1.923,7.748-3.942,14.122-5.6,18.9-3.1,8.938-3.605,8.447-5.6,14.7-1.481,4.643-1.765,6.678-3.5,8.4a7.244,7.244,0,0,0-2.1,3.5,4.242,4.242,0,0,0,0,2.1,4.627,4.627,0,0,0,1.4,2.1,5.49,5.49,0,0,0,2.1,1.4,6.178,6.178,0,0,0,3.5,0,10.5,10.5,0,0,0,2.1-.7,11.294,11.294,0,0,0,3.5-2.1,8.4,8.4,0,0,0,2.1-3.5,34.19,34.19,0,0,0,2.1-9.8c.1-8.255,2.913-34.2,10.5-35.7a4.629,4.629,0,0,1,1.4,0c20.3,1.557,23.539,1.573,26.6.7,7.06-2.015,12.965-8.7,11.9-11.2-2.137-5.005-32.049,7.441-35.7.7-2.221-4.1,5.439-15.019,14-16.8,2.192-.456,5.194-.3,11.2,0a80.383,80.383,0,0,1,9.1.7c3.5.657,5.207,1.457,7.7.7a9.418,9.418,0,0,0,4.2-2.8c2.665-2.881,4.52-7.972,2.8-9.8-1.468-1.56-4.163.717-11.9,1.4-4.086.36-3.668-.246-11.2,0-2.712.088-5.075.292-9.8.7-5.239.451-6.646.693-8.4,1.4a20.8,20.8,0,0,0-5.6,3.5,32.409,32.409,0,0,0-6.3,7,58.8,58.8,0,0,0-4.2,7c-2.493,4.8-2.21,5.615-3.5,6.3-2.675,1.418-4.664-1.7-9.8-.7a12.223,12.223,0,0,0-4.9,2.1,18.194,18.194,0,0,0-2.8,2.8c-1.788,2.009-2.684,3.037-2.8,4.2-.083.836.162,1.226,0,2.8-.09.873-.21,1.186,0,1.4.447.454,1.557-.4,3.5-.7a18.437,18.437,0,0,1,2.8,0c2.882.052,4.335.077,4.9,0,1.614-.221,1.794-.539,3.5-.7A14.843,14.843,0,0,1,616.449,306.268Z" transform="translate(-336.038 -230.67)" fill="#fff"/>
      <path id="路径_87" data-name="路径 87" d="M718.652,306.069c-1.923,7.748-3.942,14.122-5.6,18.9-3.1,8.938-3.605,8.448-5.6,14.7-1.481,4.644-1.765,6.679-3.5,8.4a7.244,7.244,0,0,0-2.1,3.5,4.241,4.241,0,0,0,0,2.1,4.625,4.625,0,0,0,1.4,2.1,5.494,5.494,0,0,0,2.1,1.4,6.173,6.173,0,0,0,3.5,0,10.492,10.492,0,0,0,2.1-.7,11.266,11.266,0,0,0,3.5-2.1,8.4,8.4,0,0,0,2.1-3.5,34.186,34.186,0,0,0,2.1-9.8c.1-8.255,2.913-34.2,10.5-35.7a4.655,4.655,0,0,1,1.4,0c20.3,1.557,23.539,1.573,26.6.7,7.06-2.014,12.965-8.7,11.9-11.2-2.137-5.005-32.048,7.441-35.7.7-2.221-4.1,5.44-15.019,14-16.8,2.192-.456,5.194-.3,11.2,0a80.584,80.584,0,0,1,9.1.7c3.5.658,5.207,1.457,7.7.7a9.414,9.414,0,0,0,4.2-2.8c2.665-2.88,4.52-7.972,2.8-9.8-1.467-1.56-4.163.717-11.9,1.4-4.086.36-3.668-.246-11.2,0-2.712.088-5.074.292-9.8.7-5.239.452-6.646.694-8.4,1.4a20.816,20.816,0,0,0-5.6,3.5,32.408,32.408,0,0,0-6.3,7,58.923,58.923,0,0,0-4.2,7c-2.493,4.8-2.21,5.616-3.5,6.3-2.675,1.419-4.663-1.7-9.8-.7a12.23,12.23,0,0,0-4.9,2.1,18.242,18.242,0,0,0-2.8,2.8c-1.788,2.009-2.683,3.038-2.8,4.2-.083.836.162,1.226,0,2.8-.09.874-.21,1.187,0,1.4.448.454,1.557-.4,3.5-.7a18.55,18.55,0,0,1,2.8,0c2.883.052,4.335.077,4.9,0,1.614-.221,1.794-.538,3.5-.7A14.852,14.852,0,0,1,718.652,306.069Z" transform="translate(-366.703 -230.605)" fill="#fff"/>
      <path id="路径_88" data-name="路径 88" d="M824.773,281.9a5.992,5.992,0,0,1-4.2-2.1c-1.433-1.872-.979-4.183-.7-5.6.463-2.354,1.628-3.868,3.5-6.3a12.517,12.517,0,0,1,3.5-3.5,8.3,8.3,0,0,1,4.2-1.4,8.1,8.1,0,0,1,3.5.7,5.628,5.628,0,0,1,2.8,2.1c.377.614.484,1.576.7,3.5a6.46,6.46,0,0,1,0,2.8,10.52,10.52,0,0,1-1.4,2.1,14.837,14.837,0,0,0-1.4,2.1c-.564,1.189-.242,1.342-.7,2.1-.4.663-.707.643-2.8,2.1a15,15,0,0,1-2.1,1.4,7.141,7.141,0,0,1-2.1.7,6.753,6.753,0,0,1-2.1,0Z" transform="translate(-402.269 -229.396)" fill="#fff"/>
      <path id="路径_89" data-name="路径 89" d="M805.382,308.184a209.044,209.044,0,0,1-6.3,24.5c-3.469,10.725-5.374,16.615-7.7,20.3a64.227,64.227,0,0,0-2.8,6.3c-.813,1.942-1.313,3.251-.7,4.2.323.5,1.148.8,2.8,1.4a7.118,7.118,0,0,0,2.8.7c.749-.059,1.132-.331,2.8-1.4,3.472-2.225,3.572-2.172,4.2-2.8a18.5,18.5,0,0,0,2.1-2.8,21.6,21.6,0,0,0,2.1-3.5c.852-2,.625-3.427.7-5.6a48.945,48.945,0,0,1,1.4-7.7c.373-1.687.884-3.671,4.9-14.7,2.365-6.493,3.547-9.74,4.2-11.2,1.238-2.769,2.016-5.754,3.5-8.4a8.645,8.645,0,0,0,1.4-4.2,5.633,5.633,0,0,0-1.4-4.2c-.619-.591-1.579-.861-3.5-1.4a14.432,14.432,0,0,0-3.5-.7,7.151,7.151,0,0,0-4.2.7,6.2,6.2,0,0,0-2.1,2.1,8.616,8.616,0,0,0-1.4,4.9A9.378,9.378,0,0,0,805.382,308.184Z" transform="translate(-392.678 -239.584)" fill="#fff"/>
      <path id="路径_90" data-name="路径 90" d="M905.236,335.3a6.948,6.948,0,0,1,1.4,3.5c.152,1.708-.462,3-1.4,4.9-2.215,4.5-3.323,6.746-3.5,7a25.52,25.52,0,0,1-9.1,7.7c-4.287,2.4-7.945,3.193-12.6,4.2a53.229,53.229,0,0,1-24.5,0c-6.96-1.452-10.44-2.178-13.3-4.9-2.8-2.665-3.819-5.789-4.9-9.1a31.145,31.145,0,0,1-1.4-12.6c.566-5.7,2.6-9.6,4.9-14a55.528,55.528,0,0,1,8.4-11.9,46.39,46.39,0,0,1,9.8-8.4,46.971,46.971,0,0,1,13.3-5.6,55.214,55.214,0,0,1,14.7-2.1,28.776,28.776,0,0,1,10.5,1.4c1.553.559,3.462,1.438,4.9,2.1,1.765.813,3.595,1.655,5.6,2.8,4.972,2.838,6.177,3.8,7,4.9,1.48,1.968,1.422,3.215,1.4,3.5-.074.99-.548,1.618-2.1,3.5-2.266,2.747-3.4,4.121-4.2,4.9-2.654,2.581-3.981,3.872-4.9,3.5-1.125-.456-.223-2.744-1.4-6.3a16.327,16.327,0,0,0-4.9-7,19.237,19.237,0,0,0-5.6-3.5,21.5,21.5,0,0,0-9.1-1.4,30.588,30.588,0,0,0-8.4,1.4,45.283,45.283,0,0,0-7,2.8c-3.139,1.452-4.707,2.179-6.3,3.5a29.786,29.786,0,0,0-4.2,4.9c-1.292,1.688-2.512,3.481-4.9,7-2.924,4.308-3.188,4.8-3.5,5.6a33.849,33.849,0,0,0-1.4,6.3c-.034.2-.426,2.5-.7,5.6a13.615,13.615,0,0,0,0,4.2,11.411,11.411,0,0,0,1.4,3.5,9.781,9.781,0,0,0,2.8,3.5c1.2.85,1.984.8,4.2,1.4,3.267.889,3.386,1.5,5.6,2.1,1.171.316,1.775.319,8.4,0,6.576-.316,7.216-.377,8.4-.7a27.22,27.22,0,0,0,6.3-2.8,33.653,33.653,0,0,0,6.3-4.2c2.7-2.326,2.2-2.758,4.9-4.9,2.346-1.859,3.207-1.915,4.2-3.5,1.047-1.672,1-3.058,2.1-3.5A3.252,3.252,0,0,1,905.236,335.3Z" transform="translate(-407.136 -238.701)" fill="#fff"/>
      <path id="路径_91" data-name="路径 91" d="M1028.99,310.346c-.135-.523-.268-.86-2.1-4.2-1.6-2.922-2.411-4.393-2.8-4.9a16.332,16.332,0,0,0-4.9-4.2c-2.788-1.548-5.269-1.781-9.1-2.1a59.675,59.675,0,0,0-7.7,0c-3.2.117-6.092.223-9.8.7a50.469,50.469,0,0,0-10.5,2.1c-3.372,1.142-5.794,2.644-10.5,5.6-6.56,4.12-9.84,6.18-12.6,9.1a41.416,41.416,0,0,0-7.7,11.9,39.876,39.876,0,0,0-3.5,11.2,29.435,29.435,0,0,0,0,10.5,21.118,21.118,0,0,0,2.8,7.7,20.6,20.6,0,0,0,6.3,6.3c3.421,2.187,6.423,2.674,11.9,3.5a69.755,69.755,0,0,0,14.7.7,47.214,47.214,0,0,0,24.5-7.7,52.084,52.084,0,0,0,9.1-7c3.651-3.6,6.709-6.707,6.3-10.5a7.4,7.4,0,0,0-1.4-3.5,4.268,4.268,0,0,0-3.5-.7c-.944.342-1.318,1.115-2.1,2.1a33.134,33.134,0,0,1-4.2,3.5c-2,1.553-3.757,2.856-5.6,4.2-2.873,2.094-4.309,3.141-4.9,3.5a40.911,40.911,0,0,1-7.7,3.5,33.761,33.761,0,0,1-7,2.1,53.828,53.828,0,0,1-8.4,0,41.736,41.736,0,0,1-7-.7,12.98,12.98,0,0,1-4.2-1.4,32.765,32.765,0,0,1-2.8-2.1c-2.44-1.822-2.825-1.92-3.5-2.8a9.328,9.328,0,0,1-1.4-2.8,13.307,13.307,0,0,1-.7-3.5c-.018-.24,0-.1,0-3.5,0-1.368,0-2.051,0-2.1a17.282,17.282,0,0,1,0-2.1c.091-1,.178-1.856.7-2.1a.964.964,0,0,1,.7,0c2.5.79,37.232-2.238,49.7.7a12.74,12.74,0,0,0,11.2-2.1,19.8,19.8,0,0,0,4.2-4.2,14.636,14.636,0,0,0,2.8-4.2,18.831,18.831,0,0,0,.7-4.9C1029.209,313.065,1029.312,311.6,1028.99,310.346Zm-12.6,10.5c-1.04,4.019-25.108,1.422-51.8,1.4h-.7a3.331,3.331,0,0,1,0-2.8c.352-.572.769-.586,2.1-1.4a19.941,19.941,0,0,0,2.8-2.1c1.028-.891,1.068-1.109,2.1-2.1a29.625,29.625,0,0,1,3.5-2.8,36.508,36.508,0,0,1,4.2-2.8,21.056,21.056,0,0,1,4.9-2.1c1.66-.453,1.7-.211,4.2-.7,3.3-.647,3.354-1.094,5.6-1.4,2.112-.288,1.863.134,5.6,0,3.445-.125,4.056-.5,5.6,0,.43.139.661.258,3.5,2.1,2.627,1.7,3.946,2.561,4.2,2.8a13.448,13.448,0,0,1,3.5,5.6,15.69,15.69,0,0,1,.7,3.5A12.587,12.587,0,0,1,1016.391,320.845Z" transform="translate(-440.595 -238.949)" fill="#fff"/>
      <text id="贝_塔_办_公" data-name="贝 塔 办 公" transform="translate(355.485 173.797)" fill="#fff" font-size="40" font-family="Kingsoft_Cloud_Font" letter-spacing="0.12em"><tspan x="0" y="0">贝 塔 办 公</tspan></text>
    </g>
  </g>
</svg>
