<svg xmlns="http://www.w3.org/2000/svg" xmlns:xlink="http://www.w3.org/1999/xlink" width="256" height="256" viewBox="0 0 256 256">
  <defs>
    <clipPath id="clip-ico">
      <rect width="256" height="256"/>
    </clipPath>
  </defs>
  <g id="ico" clip-path="url(#clip-ico)">
    <rect width="256" height="256" fill="#fff"/>
    <g id="组_499" data-name="组 499" transform="translate(-783 -14)">
      <g id="组_498" data-name="组 498">
        <g id="组_497" data-name="组 497" transform="translate(783 270) rotate(-90)">
          <rect id="矩形_16" data-name="矩形 16" width="256" height="256" rx="128" fill="#0267ff"/>
        </g>
      </g>
    </g>
    <path id="路径_1391" data-name="路径 1391" d="M-3038.431-23995.029c-8.439,36.682,16.619,98.174,26.5,135.178s54.911,20.783,60.753,5.088,18.292-13.848,23.583,1.848,23.861,30.027,31.906-4.656c8.688-37.455,29.443-102.664,27.673-139.256s-22.96-32.83-34.751-7.113-13.8,63.51-23.4,49.584-17.421-11.107-27.425,4.693-6.518-30.943-24.578-56.912S-3029.992-24031.711-3038.431-23995.029Z" transform="translate(3082.026 24058.355)" fill="#fff" stroke="#fff" stroke-width="1"/>
  </g>
</svg>
